# xmcd
#
# Track frame offsets: 
#        150
#        12945
#        28566
#        40195
#        53321
#        81527
#        95970
#
# Disc length: 1610 seconds
#
# Revision: 0
# Processed by: cddbd v1.5.2PL0 Copyright (c) Steve Scherf et al.
# Submitted via: ExactAudioCopy v1.0b3
#
DISCID=4f064807
DTITLE=Various Artist - Border Camp Blues
DYEAR=2012
DGENRE=Blues
TTITLE0=Luka Lesson - May Your Pen Grace The Page
TTITLE1=Jimmy Watts Band - Mountain Side
TTITLE2=Wax and Wire - Lying Christ
TTITLE3=Peter B and The Homeless Souls - Give A Damn
TTITLE4=The Quadratic Contingence - Old Man's Last Granny Smith
TTITLE5=Dru and The Intentions - Let It Go
TTITLE6=Radiola (feat. Peter B) - Border Camp Blues
EXTD=
EXTT0=
EXTT1=
EXTT2=
EXTT3=
EXTT4=
EXTT5=
EXTT6=
PLAYORDER=
